<svg xmlns="http://www.w3.org/2000/svg" data-name="Layer 1" viewBox="0 0 100 125" x="0px" y="0px" fill="#FFFFFF">
  <title>Cloud Computing Icon Set Glyph</title>
  <path d="M94,52.87A19.24,19.24,0,0,1,74.78,72.09H72.67V65.54h2.11a12.67,12.67,0,0,0,5.67-24l-1.8-.9v-2A11.14,11.14,0,0,0,67.53,27.56a11.64,11.64,0,0,0-2.42.26l-2.49.55L61.48,26.1a12.93,12.93,0,0,0-24.29,3.59l-.68,3.91L32.8,32.19a8.93,8.93,0,0,0-12.1,8.36,8.85,8.85,0,0,0,.23,2l.63,2.76-2.64,1a9.95,9.95,0,0,0,3.57,19.23h4.84v6.55H22.49a16.49,16.49,0,0,1-8.31-30.73c0-.28,0-.54,0-.81A15.49,15.49,0,0,1,29.64,25.07a14.82,14.82,0,0,1,2,.13,19.48,19.48,0,0,1,34.47-4.13c.47,0,1-.06,1.42-.06A17.6,17.6,0,0,1,85.08,36.64,19.33,19.33,0,0,1,94,52.87Z"/>
  <path d="M68.52,51.88h-37A2.89,2.89,0,0,0,28.91,55v3.5a2.88,2.88,0,0,0,2.57,3.11h37a2.88,2.88,0,0,0,2.57-3.11V55A2.89,2.89,0,0,0,68.52,51.88ZM34.93,59.12a2.38,2.38,0,1,1,2.38-2.37A2.38,2.38,0,0,1,34.93,59.12Z"/>
  <polygon points="35.4 56.04 35.4 56.04 35.4 56.04 35.4 56.04"/>
  <path d="M68.52,64.86h-37A2.88,2.88,0,0,0,28.91,68v3.51a2.88,2.88,0,0,0,2.57,3.11h37a2.88,2.88,0,0,0,2.57-3.11V68A2.88,2.88,0,0,0,68.52,64.86ZM34.93,72.1a2.38,2.38,0,1,1,2.38-2.38A2.38,2.38,0,0,1,34.93,72.1Z"/>
  <path d="M68.51,77.84h-37A2.89,2.89,0,0,0,28.91,81v3.5a2.89,2.89,0,0,0,2.58,3.12h37a2.89,2.89,0,0,0,2.58-3.12V81A2.89,2.89,0,0,0,68.51,77.84ZM34.93,85.08a2.38,2.38,0,1,1,2.38-2.38A2.38,2.38,0,0,1,34.93,85.08Z"/>
  
</svg>
