<svg xmlns="http://www.w3.org/2000/svg" xmlns:xlink="http://www.w3.org/1999/xlink" version="1.1" x="0px" y="0px"
                viewBox="0 0 66 82.5" enable-background="new 0 0 66 66" xml:space="preserve" width="50" height="50" fill="white">
                <g>
                  <g>
                    <path
                      d="M13.5,7.1c1,3,3.8,5.2,7.1,5.2c0.6,0,1,0.4,1,1c0,0.6-0.4,1-1,1c-3.8,0-7.1-2.3-8.6-5.6c-5.3,1.9-7.6,8.1-5.2,13    c4.3,0.3,8.4,2.4,11.4,5.5c0.4,0.4,0.4,1,0,1.4c-0.4,0.4-1,0.4-1.4,0c-2.8-2.8-6.4-4.6-10-4.9c-0.4,0-0.9-0.1-1.3-0.1    C0,27.5-0.5,35.5,4.2,40c3.5,0.4,7.2-0.8,9.9-3.5c0.4-0.4,1-0.4,1.4,0c0.4,0.4,0.4,1,0,1.4C13,40.5,9.7,41.8,6.4,42    c-0.8,2.4-0.7,5.1,0.5,7.4c1.1,2.2,3,3.8,5.2,4.6c2.7-2.5,6.3-4.1,10.3-4.1c0.6,0,1,0.4,1,1c0,0.6-0.4,1-1,1    c-3.7,0-7.1,1.6-9.5,4.1c0.1,1.9,0.8,3.7,2,5.3c1.8,2.3,4.5,3.6,7.4,3.6c5.2,0,9.5-4.3,9.5-9.5v-45C31.9,0.1,17.3-2.7,13.5,7.1z" />
                  </g>
                  <g>
                    <path
                      d="M60.4,28.4c-2.2,0-4,1.6-4.5,3.6h-22v2h22c0.5,2.1,2.3,3.6,4.5,3.6c2.5,0,4.6-2.1,4.6-4.6C65,30.5,62.9,28.4,60.4,28.4z     M60.4,35.6c-1.4,0-2.6-1.2-2.6-2.6c0-1.4,1.2-2.6,2.6-2.6c1.4,0,2.6,1.2,2.6,2.6C63,34.4,61.8,35.6,60.4,35.6z" />
                  </g>
                  <g>
                    <path
                      d="M46.2,25l5.4-6.1h4.3c0.5,2.1,2.3,3.6,4.5,3.6c2.5,0,4.6-2.1,4.6-4.6s-2.1-4.6-4.6-4.6c-2.2,0-4,1.5-4.5,3.6h-4.7    c-0.3,0-0.5,0.1-0.7,0.3L45,23.3H33.9v2H11.6C45.8,25.3,46,25.2,46.2,25z M60.4,15.3c1.4,0,2.6,1.2,2.6,2.6S61.8,20,60.4,20    s-2.6-1.2-2.6-2.6S59,15.3,60.4,15.3z" />
                  </g>
                  <g>
                    <path
                      d="M42.7,16.6l4.5-4.5c0.8,0.5,1.7,0.9,2.7,0.9c2.5,0,4.6-2.1,4.6-4.6c0-2.5-2.1-4.6-4.6-4.6c-2.5,0-4.6,2.1-4.6,4.6    c0,0.8,0.2,1.6,0.6,2.2l-4.3,4.3h-7.7v2H42C42.3,16.9,42.5,16.8,42.7,16.6z M49.9,5.8c1.4,0,2.6,1.2,2.6,2.6S51.3,11,49.9,11    s-2.6-1.2-2.6-2.6S48.5,5.8,49.9,5.8z" />
                  </g>
                  <g>
                    <path
                      d="M60.4,42.4c-2.2,0-4,1.5-4.5,3.6h-4.3l-5.4-6.1c-0.2-0.2-0.5-0.3-0.7-0.3H33.9v2H45l5.4,6.1c0.2,0.2,0.5,0.3,0.7,0.3h4.7    c0.5,2.1,2.3,3.6,4.5,3.6c2.5,0,4.6-2.1,4.6-4.6C65,44.4,62.9,42.4,60.4,42.4z M60.4,49.6c-1.4,0-2.6-1.2-2.6-2.6    c0-1.4,1.2-2.6,2.6-2.6c1.4,0,2.6,1.2,2.6,2.6C63,48.4,61.8,49.6,60.4,49.6z" />
                  </g>
                  <g>
                    <path
                      d="M49.9,51.9c-1,0-1.9,0.3-2.7,0.9l-4.5-4.6c-0.2-0.2-0.4-0.3-0.7-0.3h-8.1v2h7.7l4.3,4.3c-0.4,0.7-0.6,1.4-0.6,2.2    c0,2.5,2.1,4.6,4.6,4.6c2.5,0,4.6-2.1,4.6-4.6C54.5,53.9,52.4,51.9,49.9,51.9z M49.9,59.1c-1.4,0-2.6-1.2-2.6-2.6    c0-1.4,1.2-2.6,2.6-2.6s2.6,1.2,2.6,2.6C52.5,57.9,51.3,59.1,49.9,59.1z" />
                  </g>
                </g>
              </svg>